<svg width="622" height="63" viewBox="0 0 622 63" fill="none" xmlns="http://www.w3.org/2000/svg">
<path d="M42.4556 6.52L42.0237 7.42191L42.0313 7.42555L42.039 7.42906L42.4556 6.52ZM51.8156 14.12L51.0063 14.7074L51.0109 14.7136L51.8156 14.12ZM56.6956 25.48V26.48H57.9125L57.6767 25.2862L56.6956 25.48ZM40.1356 25.48L39.2087 25.8552L39.4616 26.48H40.1356V25.48ZM35.8956 20.28L35.3409 21.112L35.349 21.1175L35.3572 21.1227L35.8956 20.28ZM20.8556 22.28L21.6239 22.9202L21.6303 22.9124L20.8556 22.28ZM20.8556 43L20.081 43.6324L20.081 43.6324L20.8556 43ZM35.8956 45L36.4503 45.8321L36.4503 45.832L35.8956 45ZM40.1356 39.72V38.72H39.4616L39.2087 39.3448L40.1356 39.72ZM56.6956 39.72L57.6774 39.91L57.9077 38.72H56.6956V39.72ZM47.5756 55.56L48.2098 56.3332L48.2107 56.3324L47.5756 55.56ZM14.7756 57.8L14.2676 58.6614L14.2741 58.6652L14.2807 58.6689L14.7756 57.8ZM5.09563 47.56L4.20554 48.0159L4.21001 48.0244L5.09563 47.56ZM5.09563 17.64L4.20996 17.1756L4.20558 17.1841L5.09563 17.64ZM14.7756 7.48L15.2754 8.34619L15.2788 8.34417L14.7756 7.48ZM29.4956 4.8C34.2227 4.8 38.3914 5.6825 42.0237 7.42191L42.8875 5.61808C38.9465 3.73083 34.4752 2.8 29.4956 2.8V4.8ZM42.039 7.42906C45.7281 9.11992 48.7109 11.5448 51.0063 14.7074L52.6249 13.5326C50.1204 10.0819 46.8631 7.44007 42.8723 5.61093L42.039 7.42906ZM51.0109 14.7136C53.3158 17.838 54.8872 21.4853 55.7146 25.6738L57.6767 25.2862C56.7973 20.8346 55.1155 16.9086 52.6204 13.5263L51.0109 14.7136ZM56.6956 24.48H40.1356V26.48H56.6956V24.48ZM41.0626 25.1048C40.083 22.6848 38.5398 20.7827 36.434 19.4373L35.3572 21.1227C37.0914 22.2307 38.3749 23.7952 39.2087 25.8552L41.0626 25.1048ZM36.4503 19.4479C34.3518 18.049 31.9419 17.36 29.2556 17.36V19.36C31.5827 19.36 33.5994 19.951 35.3409 21.112L36.4503 19.4479ZM29.2556 17.36C25.4982 17.36 22.4102 18.7943 20.081 21.6476L21.6303 22.9124C23.5677 20.539 26.0797 19.36 29.2556 19.36V17.36ZM20.0874 21.6398C17.7647 24.4271 16.6556 28.1165 16.6556 32.6H18.6556C18.6556 28.4435 19.6799 25.2529 21.6238 22.9202L20.0874 21.6398ZM16.6556 32.6C16.6556 37.0847 17.7651 40.7954 20.081 43.6324L21.6303 42.3676C19.6795 39.9779 18.6556 36.7553 18.6556 32.6H16.6556ZM20.081 43.6324C22.4102 46.4857 25.4982 47.92 29.2556 47.92V45.92C26.0797 45.92 23.5677 44.741 21.6303 42.3676L20.081 43.6324ZM29.2556 47.92C31.9419 47.92 34.3518 47.231 36.4503 45.8321L35.3409 44.1679C33.5994 45.329 31.5827 45.92 29.2556 45.92V47.92ZM36.4503 45.832C38.5456 44.4352 40.0843 42.5121 41.0626 40.0952L39.2087 39.3448C38.3736 41.4079 37.0856 43.0048 35.3409 44.1679L36.4503 45.832ZM40.1356 40.72H56.6956V38.72H40.1356V40.72ZM55.7138 39.53C54.4741 45.9353 51.5451 51.0016 46.9405 54.7876L48.2107 56.3324C53.2061 52.2251 56.3572 46.7313 57.6774 39.91L55.7138 39.53ZM46.9414 54.7868C42.4061 58.5068 36.6169 60.4 29.4956 60.4V62.4C36.9877 62.4 43.2518 60.3998 48.2098 56.3332L46.9414 54.7868ZM29.4956 60.4C24.042 60.4 19.3111 59.2326 15.2706 56.9311L14.2807 58.6689C18.6668 61.1674 23.7493 62.4 29.4956 62.4V60.4ZM15.2836 56.9386C11.2878 54.5821 8.19016 51.3079 5.98125 47.0956L4.21001 48.0244C6.58776 52.5587 9.9435 56.1112 14.2676 58.6614L15.2836 56.9386ZM5.98567 47.1041C3.82746 42.8905 2.73563 38.0638 2.73563 32.6H0.735625C0.735625 38.3362 1.88379 43.4829 4.20558 48.0159L5.98567 47.1041ZM2.73563 32.6C2.73563 27.1362 3.82746 22.3095 5.98567 18.0959L4.20558 17.1841C1.88379 21.7171 0.735625 26.8638 0.735625 32.6H2.73563ZM5.98125 18.1044C8.18922 13.8939 11.2843 10.6487 15.2753 8.34618L14.2759 6.61381C9.94699 9.11126 6.5887 12.6395 4.21001 17.1756L5.98125 18.1044ZM15.2788 8.34417C19.3179 5.99232 24.0457 4.8 29.4956 4.8V2.8C23.7455 2.8 18.66 4.06101 14.2724 6.61582L15.2788 8.34417ZM105.566 7.24L105.069 8.10759L105.075 8.11116L105.082 8.11465L105.566 7.24ZM115.966 17.56L115.096 18.0528L115.101 18.0606L115.966 17.56ZM115.966 47.48L115.101 46.9794L115.101 46.9794L115.966 47.48ZM105.486 57.88L105.976 58.7522L105.979 58.7502L105.486 57.88ZM76.4463 57.88L75.9535 58.7502L75.9615 58.7547L76.4463 57.88ZM65.9663 47.48L66.8319 46.9794L66.8319 46.9794L65.9663 47.48ZM65.9663 17.56L65.1006 17.0594L65.1006 17.0594L65.9663 17.56ZM76.4463 7.24L76.931 8.11469L76.939 8.11017L76.4463 7.24ZM81.5663 21.96L82.3111 22.6273L82.3179 22.6196L81.5663 21.96ZM81.5663 43L80.8146 43.6596L80.8146 43.6596L81.5663 43ZM100.366 43L101.118 43.6596L101.118 43.6596L100.366 43ZM100.366 21.96L99.607 22.6108L99.6141 22.6191L99.6214 22.6272L100.366 21.96ZM91.0063 4.48C96.1756 4.48 100.856 5.69276 105.069 8.10759L106.064 6.3724C101.53 3.7739 96.5036 2.48 91.0063 2.48V4.48ZM105.082 8.11465C109.346 10.4781 112.68 13.7856 115.096 18.0527L116.836 17.0672C114.239 12.4811 110.64 8.90851 106.051 6.36534L105.082 8.11465ZM115.101 18.0606C117.565 22.3224 118.806 27.1338 118.806 32.52H120.806C120.806 26.8129 119.487 21.651 116.832 17.0594L115.101 18.0606ZM118.806 32.52C118.806 37.9062 117.565 42.7176 115.101 46.9794L116.832 47.9806C119.487 43.389 120.806 38.2271 120.806 32.52H118.806ZM115.101 46.9794C112.629 51.2527 109.264 54.5914 104.994 57.0098L105.979 58.7502C110.562 56.1553 114.183 52.5606 116.832 47.9806L115.101 46.9794ZM104.997 57.0079C100.781 59.3729 96.1243 60.56 91.0063 60.56V62.56C96.4482 62.56 101.445 61.2938 105.976 58.7521L104.997 57.0079ZM91.0063 60.56C85.8882 60.56 81.2028 59.3729 76.931 57.0053L75.9615 58.7547C80.543 61.2938 85.5643 62.56 91.0063 62.56V60.56ZM76.939 57.0098C72.6682 54.5914 69.3032 51.2527 66.8319 46.9794L65.1006 47.9806C67.7493 52.5606 71.371 56.1553 75.9535 58.7502L76.939 57.0098ZM66.8319 46.9794C64.3673 42.7176 63.1263 37.9062 63.1263 32.52H61.1263C61.1263 38.2271 62.4452 43.389 65.1006 47.9806L66.8319 46.9794ZM63.1263 32.52C63.1263 27.1338 64.3673 22.3224 66.8319 18.0606L65.1006 17.0594C62.4452 21.651 61.1263 26.8129 61.1263 32.52H63.1263ZM66.8319 18.0606C69.3022 13.7891 72.6646 10.4792 76.931 8.11465L75.9615 6.36534C71.3746 8.90749 67.7503 12.4775 65.1006 17.0594L66.8319 18.0606ZM76.939 8.11017C81.2096 5.6919 85.8921 4.48 91.0063 4.48V2.48C85.5604 2.48 80.5363 3.77476 75.9535 6.36982L76.939 8.11017ZM91.0063 17.04C86.7664 17.04 83.3273 18.4371 80.8146 21.3004L82.3179 22.6196C84.3918 20.2562 87.2461 19.04 91.0063 19.04V17.04ZM80.8214 21.2927C78.319 24.0861 77.1263 27.8703 77.1263 32.52H79.1263C79.1263 28.2097 80.2268 24.9539 82.3111 22.6272L80.8214 21.2927ZM77.1263 32.52C77.1263 37.0714 78.3231 40.8204 80.8146 43.6596L82.3179 42.3404C80.2227 39.9529 79.1263 36.7153 79.1263 32.52H77.1263ZM80.8146 43.6596C83.3273 46.5229 86.7664 47.92 91.0063 47.92V45.92C87.2461 45.92 84.3918 44.7038 82.3179 42.3404L80.8146 43.6596ZM91.0063 47.92C95.1975 47.92 98.6079 46.5198 101.118 43.6596L99.6146 42.3404C97.5379 44.7069 94.7083 45.92 91.0063 45.92V47.92ZM101.118 43.6596C103.609 40.8204 104.806 37.0714 104.806 32.52H102.806C102.806 36.7153 101.71 39.9529 99.6146 42.3404L101.118 43.6596ZM104.806 32.52C104.806 27.8703 103.613 24.0861 101.111 21.2927L99.6214 22.6272C101.706 24.9539 102.806 28.2097 102.806 32.52H104.806ZM101.126 21.3092C98.6638 18.4373 95.2457 17.04 91.0063 17.04V19.04C94.7668 19.04 97.5887 20.2561 99.607 22.6108L101.126 21.3092ZM192.691 4.6H193.691V3.6H192.691V4.6ZM192.691 61V62H193.691V61H192.691ZM177.091 61H176.091V62H177.091V61ZM177.091 29H178.091L176.141 28.6888L177.091 29ZM166.611 61V62H167.336L167.562 61.3112L166.611 61ZM153.091 61L152.141 61.3112L152.366 62H153.091V61ZM142.611 29L143.562 28.6888L141.611 29H142.611ZM142.611 61V62H143.611V61H142.611ZM126.851 61H125.851V62H126.851V61ZM126.851 4.6V3.6H125.851V4.6H126.851ZM146.131 4.6L147.066 4.24485L146.821 3.6H146.131V4.6ZM160.051 41.24L159.116 41.5951L160.065 44.0917L160.989 41.5862L160.051 41.24ZM173.571 4.6V3.6H172.874L172.633 4.25382L173.571 4.6ZM191.691 4.6V61H193.691V4.6H191.691ZM192.691 60H177.091V62H192.691V60ZM178.091 61V29H176.091V61H178.091ZM176.141 28.6888L165.661 60.6888L167.562 61.3112L178.042 29.3112L176.141 28.6888ZM166.611 60H153.091V62H166.611V60ZM154.042 60.6888L143.562 28.6888L141.661 29.3112L152.141 61.3112L154.042 60.6888ZM141.611 29V61H143.611V29H141.611ZM142.611 60H126.851V62H142.611V60ZM127.851 61V4.6H125.851V61H127.851ZM126.851 5.6H146.131V3.6H126.851V5.6ZM145.196 4.95514L159.116 41.5951L160.986 40.8849L147.066 4.24485L145.196 4.95514ZM160.989 41.5862L174.509 4.94618L172.633 4.25382L159.113 40.8938L160.989 41.5862ZM173.571 5.6H192.691V3.6H173.571V5.6ZM217.143 4.36H218.143V3.36H217.143V4.36ZM217.143 61V62H218.143V61H217.143ZM201.383 61H200.383V62H201.383V61ZM201.383 4.36V3.36H200.383V4.36H201.383ZM216.143 4.36V61H218.143V4.36H216.143ZM217.143 60H201.383V62H217.143V60ZM202.383 61V4.36H200.383V61H202.383ZM201.383 5.36H217.143V3.36H201.383V5.36ZM278.156 61V62H279.156V61H278.156ZM262.396 61L261.56 61.5498L261.857 62H262.396V61ZM241.596 29.4L242.431 28.8502L240.596 26.062V29.4H241.596ZM241.596 61V62H242.596V61H241.596ZM225.836 61H224.836V62H225.836V61ZM225.836 4.44V3.44H224.836V4.44H225.836ZM241.596 4.44L242.434 3.89501L242.138 3.44H241.596V4.44ZM262.396 36.44L261.557 36.985L263.396 39.8134V36.44H262.396ZM262.396 4.44V3.44H261.396V4.44H262.396ZM278.156 4.44H279.156V3.44H278.156V4.44ZM278.156 60H262.396V62H278.156V60ZM263.231 60.4502L242.431 28.8502L240.76 29.9498L261.56 61.5498L263.231 60.4502ZM240.596 29.4V61H242.596V29.4H240.596ZM241.596 60H225.836V62H241.596V60ZM226.836 61V4.44H224.836V61H226.836ZM225.836 5.44H241.596V3.44H225.836V5.44ZM240.757 4.98499L261.557 36.985L263.234 35.895L242.434 3.89501L240.757 4.98499ZM263.396 36.44V4.44H261.396V36.44H263.396ZM262.396 5.44H278.156V3.44H262.396V5.44ZM277.156 4.44V61H279.156V4.44H277.156ZM331.491 9.16L330.887 9.95669L330.887 9.95669L331.491 9.16ZM339.891 23.4V24.4H341.065L340.879 23.2413L339.891 23.4ZM323.331 23.4L322.456 23.8831L322.741 24.4H323.331V23.4ZM319.571 19.72L320.052 18.8432L320.052 18.8432L319.571 19.72ZM304.531 22.28L303.78 21.6204L303.779 21.6215L304.531 22.28ZM304.771 43.8L304.042 44.4839L304.049 44.4918L304.057 44.4995L304.771 43.8ZM322.531 45.64L321.997 44.7945L321.997 44.7945L322.531 45.64ZM327.331 39.96L328.237 40.3839L328.903 38.96H327.331V39.96ZM311.651 39.96H310.651V40.96H311.651V39.96ZM311.651 28.76V27.76H310.651V28.76H311.651ZM340.371 28.76H341.371V27.76H340.371V28.76ZM340.371 44.36L341.289 44.7564L341.371 44.5667V44.36H340.371ZM330.611 56.44L331.21 57.2412L331.211 57.24L330.611 56.44ZM298.691 57.8L298.197 58.6696L298.206 58.6742L298.691 57.8ZM288.691 47.56L287.806 48.0244L287.81 48.0328L288.691 47.56ZM288.691 17.72L287.81 17.2472L287.808 17.2511L288.691 17.72ZM298.611 7.56L299.102 8.43161L299.11 8.4269L298.611 7.56ZM313.651 4.88C320.741 4.88 326.46 6.59813 330.887 9.95669L332.096 8.36331C327.243 4.68187 321.068 2.88 313.651 2.88V4.88ZM330.887 9.95669C335.313 13.3146 337.983 17.8284 338.904 23.5587L340.879 23.2413C339.88 17.0249 336.949 12.0454 332.096 8.36331L330.887 9.95669ZM339.891 22.4H323.331V24.4H339.891V22.4ZM324.207 22.9169C323.256 21.1929 321.86 19.8346 320.052 18.8432L319.09 20.5968C320.589 21.4187 321.7 22.5137 322.456 23.8831L324.207 22.9169ZM320.052 18.8432C318.226 17.8418 316.108 17.36 313.731 17.36V19.36C315.835 19.36 317.61 19.7849 319.09 20.5968L320.052 18.8432ZM313.731 17.36C309.637 17.36 306.284 18.7666 303.78 21.6204L305.283 22.9396C307.365 20.5667 310.145 19.36 313.731 19.36V17.36ZM303.779 21.6215C301.34 24.4088 300.171 28.1051 300.171 32.6H302.171C302.171 28.4549 303.243 25.2712 305.284 22.9385L303.779 21.6215ZM300.171 32.6C300.171 37.659 301.409 41.6757 304.042 44.4839L305.501 43.1161C303.333 40.8043 302.171 37.3544 302.171 32.6H300.171ZM304.057 44.4995C306.755 47.2565 310.623 48.56 315.491 48.56V46.56C310.973 46.56 307.694 45.3568 305.486 43.1005L304.057 44.4995ZM315.491 48.56C318.325 48.56 320.861 47.8775 323.065 46.4855L321.997 44.7945C320.148 45.9625 317.991 46.56 315.491 46.56V48.56ZM323.065 46.4855C325.277 45.0884 326.995 43.0364 328.237 40.3839L326.426 39.5361C325.32 41.897 323.838 43.6316 321.997 44.7945L323.065 46.4855ZM327.331 38.96H311.651V40.96H327.331V38.96ZM312.651 39.96V28.76H310.651V39.96H312.651ZM311.651 29.76H340.371V27.76H311.651V29.76ZM339.371 28.76V44.36H341.371V28.76H339.371ZM339.453 43.9636C337.502 48.482 334.366 52.3743 330.011 55.64L331.211 57.24C335.817 53.7857 339.187 49.6247 341.289 44.7564L339.453 43.9636ZM330.013 55.6388C325.795 58.7895 320.419 60.4 313.811 60.4V62.4C320.751 62.4 326.574 60.7038 331.21 57.2412L330.013 55.6388ZM313.811 60.4C308.193 60.4 303.325 59.2306 299.177 56.9258L298.206 58.6742C302.697 61.1694 307.91 62.4 313.811 62.4V60.4ZM299.185 56.9304C295.029 54.5701 291.83 51.2942 289.572 47.0872L287.81 48.0328C290.246 52.5724 293.714 56.1232 298.197 58.6696L299.185 56.9304ZM289.577 47.0956C287.368 42.8837 286.251 38.0601 286.251 32.6H284.251C284.251 38.3399 285.428 43.4896 287.806 48.0244L289.577 47.0956ZM286.251 32.6C286.251 27.1396 287.368 22.3448 289.575 18.1889L287.808 17.2511C285.428 21.7352 284.251 26.8604 284.251 32.6H286.251ZM289.572 18.1928C291.831 13.9844 295.003 10.7371 299.102 8.43157L298.121 6.68842C293.686 9.18288 290.245 12.709 287.81 17.2472L289.572 18.1928ZM299.11 8.4269C303.201 6.07462 308.036 4.88 313.651 4.88V2.88C307.746 2.88 302.555 4.13871 298.113 6.69309L299.11 8.4269ZM402.004 53.24L402.852 53.77L402.852 53.77L402.004 53.24ZM394.964 59.32L394.529 58.4194L394.964 59.32ZM367.604 56.84L367.005 57.6412L367.01 57.6448L367.604 56.84ZM360.724 43.4V42.4H359.657L359.726 43.4641L360.724 43.4ZM377.444 43.4L378.44 43.3192L378.366 42.4H377.444V43.4ZM379.284 47.8L378.615 48.5433L378.615 48.5433L379.284 47.8ZM386.404 48.2L385.749 47.4443L385.736 47.4555L385.723 47.4672L386.404 48.2ZM385.284 41.32L384.756 42.1696L384.767 42.1763L384.778 42.1827L385.284 41.32ZM377.924 38.2L377.599 39.1459L377.608 39.1487L377.924 38.2ZM369.044 34.6L368.588 35.4903L368.597 35.4944L369.044 34.6ZM363.044 29.32L362.226 29.896L362.231 29.9021L362.235 29.9082L363.044 29.32ZM363.284 11.24L364.094 11.8261L364.1 11.818L363.284 11.24ZM370.724 5.48L371.101 6.4063L371.107 6.40357L371.114 6.40075L370.724 5.48ZM396.964 8.12L396.336 8.89875L396.342 8.90352L396.348 8.90819L396.964 8.12ZM403.364 21V22H404.433L404.361 20.9328L403.364 21ZM386.484 21L385.491 21.1203L385.598 22H386.484V21ZM384.804 17.08L384.097 17.7871L384.107 17.7978L384.118 17.8082L384.804 17.08ZM378.484 16.76L377.805 16.0252L377.805 16.0252L378.484 16.76ZM379.684 23.4L379.165 24.2548L379.171 24.2588L379.178 24.2627L379.684 23.4ZM386.884 26.44L387.221 25.4985L387.209 25.4945L386.884 26.44ZM395.764 30.2L396.227 29.3138L396.227 29.3138L395.764 30.2ZM403.404 44.68C403.404 47.6476 402.652 50.3159 401.156 52.71L402.852 53.77C404.555 51.0441 405.404 48.0058 405.404 44.68H403.404ZM401.156 52.71C399.669 55.0888 397.476 56.9966 394.529 58.4194L395.399 60.2206C398.638 58.6568 401.138 56.5112 402.852 53.77L401.156 52.71ZM394.529 58.4194C391.602 59.8327 388.051 60.56 383.844 60.56V62.56C388.277 62.56 392.139 61.794 395.399 60.2206L394.529 58.4194ZM383.844 60.56C377.446 60.56 372.255 59.0276 368.197 56.0352L367.01 57.6448C371.486 60.9458 377.122 62.56 383.844 62.56V60.56ZM368.202 56.0388C364.251 53.0876 362.079 48.8923 361.722 43.3359L359.726 43.4641C360.116 49.5343 362.53 54.299 367.005 57.6412L368.202 56.0388ZM360.724 44.4H377.444V42.4H360.724V44.4ZM376.447 43.4808C376.62 45.611 377.296 47.3565 378.615 48.5433L379.953 47.0567C379.138 46.3235 378.588 45.1357 378.44 43.3192L376.447 43.4808ZM378.615 48.5433C379.88 49.682 381.431 50.24 383.204 50.24V48.24C381.883 48.24 380.821 47.838 379.953 47.0567L378.615 48.5433ZM383.204 50.24C384.75 50.24 386.094 49.8518 387.084 48.9328L385.723 47.4672C385.22 47.9348 384.43 48.24 383.204 48.24V50.24ZM387.059 48.9557C388.123 48.0329 388.604 46.7437 388.604 45.24H386.604C386.604 46.2963 386.284 46.9804 385.749 47.4443L387.059 48.9557ZM388.604 45.24C388.604 43.157 387.623 41.5324 385.789 40.4573L384.778 42.1827C386.037 42.921 386.604 43.9096 386.604 45.24H388.604ZM385.811 40.4704C384.162 39.4468 381.618 38.3774 378.24 37.2513L377.608 39.1487C380.949 40.2626 383.312 41.2732 384.756 42.1696L385.811 40.4704ZM378.248 37.2542C374.7 36.0362 371.785 34.8525 369.491 33.7056L368.597 35.4944C370.996 36.6941 374 37.9104 377.599 39.1458L378.248 37.2542ZM369.499 33.7098C367.363 32.6166 365.479 30.9677 363.852 28.7318L362.235 29.9082C364.022 32.3657 366.138 34.2368 368.588 35.4902L369.499 33.7098ZM363.861 28.744C362.356 26.6079 361.564 23.8119 361.564 20.28H359.564C359.564 24.1081 360.425 27.3387 362.226 29.896L363.861 28.744ZM361.564 20.28C361.564 16.9403 362.421 14.1393 364.094 11.8261L362.474 10.6539C360.52 13.354 359.564 16.5797 359.564 20.28H361.564ZM364.1 11.818C365.794 9.42651 368.115 7.62065 371.101 6.4063L370.347 4.5537C367.039 5.89935 364.4 7.93349 362.468 10.662L364.1 11.818ZM371.114 6.40075C374.118 5.12785 377.555 4.48 381.444 4.48V2.48C377.332 2.48 373.623 3.16548 370.334 4.55925L371.114 6.40075ZM381.444 4.48C387.796 4.48 392.724 5.98867 396.336 8.89875L397.591 7.34125C393.524 4.06465 388.105 2.48 381.444 2.48V4.48ZM396.348 8.90819C399.988 11.7501 402.009 15.7647 402.366 21.0672L404.361 20.9328C403.972 15.142 401.726 10.5699 397.579 7.33181L396.348 8.90819ZM403.364 20H386.484V22H403.364V20ZM387.476 20.8797C387.247 18.9841 386.626 17.4216 385.489 16.3518L384.118 17.8082C384.795 18.445 385.294 19.4959 385.491 21.1203L387.476 20.8797ZM385.511 16.3729C384.434 15.2964 383.014 14.8 381.364 14.8V16.8C382.593 16.8 383.466 17.1569 384.097 17.7871L385.511 16.3729ZM381.364 14.8C379.963 14.8 378.734 15.1684 377.805 16.0252L379.162 17.4948C379.621 17.0716 380.311 16.8 381.364 16.8V14.8ZM377.805 16.0252C376.842 16.9148 376.444 18.1844 376.444 19.64H378.444C378.444 18.5356 378.739 17.8852 379.162 17.4948L377.805 16.0252ZM376.444 19.64C376.444 21.6264 377.406 23.1868 379.165 24.2548L380.203 22.5452C378.975 21.7998 378.444 20.8536 378.444 19.64H376.444ZM379.178 24.2627C380.812 25.2208 383.288 26.2598 386.558 27.3855L387.209 25.4945C383.973 24.3802 381.648 23.3925 380.189 22.5373L379.178 24.2627ZM386.547 27.3814C390.093 28.652 393.008 29.8878 395.3 31.0862L396.227 29.3138C393.826 28.0589 390.821 26.788 387.221 25.4986L386.547 27.3814ZM395.3 31.0862C397.498 32.2349 399.41 33.914 401.035 36.1482L402.652 34.9718C400.864 32.5126 398.723 30.6185 396.227 29.3138L395.3 31.0862ZM401.035 36.1482C402.586 38.2806 403.404 41.0973 403.404 44.68H405.404C405.404 40.796 404.515 37.5327 402.652 34.9718L401.035 36.1482ZM453.144 7.24L452.647 8.10759L452.653 8.11116L452.66 8.11465L453.144 7.24ZM463.544 17.56L462.674 18.0528L462.679 18.0606L463.544 17.56ZM463.544 47.48L462.679 46.9794L462.679 46.9794L463.544 47.48ZM453.064 57.88L453.554 58.7522L453.557 58.7502L453.064 57.88ZM424.024 57.88L423.532 58.7502L423.54 58.7547L424.024 57.88ZM413.544 47.48L414.41 46.9794L414.41 46.9794L413.544 47.48ZM413.544 17.56L412.679 17.0594L412.679 17.0594L413.544 17.56ZM424.024 7.24L424.509 8.11469L424.517 8.11017L424.024 7.24ZM429.144 21.96L429.889 22.6273L429.896 22.6196L429.144 21.96ZM429.144 43L428.393 43.6596L428.393 43.6596L429.144 43ZM447.944 43L448.696 43.6596L448.696 43.6596L447.944 43ZM447.944 21.96L447.185 22.6108L447.192 22.6191L447.2 22.6272L447.944 21.96ZM438.584 4.48C443.754 4.48 448.434 5.69276 452.647 8.10759L453.642 6.3724C449.108 3.7739 444.082 2.48 438.584 2.48V4.48ZM452.66 8.11465C456.924 10.4781 460.258 13.7856 462.674 18.0527L464.415 17.0672C461.818 12.4811 458.218 8.90851 453.629 6.36534L452.66 8.11465ZM462.679 18.0606C465.143 22.3224 466.384 27.1338 466.384 32.52H468.384C468.384 26.8129 467.065 21.651 464.41 17.0594L462.679 18.0606ZM466.384 32.52C466.384 37.9062 465.143 42.7176 462.679 46.9794L464.41 47.9806C467.065 43.389 468.384 38.2271 468.384 32.52H466.384ZM462.679 46.9794C460.207 51.2527 456.842 54.5914 452.572 57.0098L453.557 58.7502C458.14 56.1553 461.761 52.5606 464.41 47.9806L462.679 46.9794ZM452.575 57.0079C448.359 59.3729 443.702 60.56 438.584 60.56V62.56C444.026 62.56 449.023 61.2938 453.554 58.7521L452.575 57.0079ZM438.584 60.56C433.466 60.56 428.781 59.3729 424.509 57.0053L423.54 58.7547C428.121 61.2938 433.142 62.56 438.584 62.56V60.56ZM424.517 57.0098C420.246 54.5914 416.881 51.2527 414.41 46.9794L412.679 47.9806C415.327 52.5606 418.949 56.1553 423.532 58.7502L424.517 57.0098ZM414.41 46.9794C411.945 42.7176 410.704 37.9062 410.704 32.52H408.704C408.704 38.2271 410.023 43.389 412.679 47.9806L414.41 46.9794ZM410.704 32.52C410.704 27.1338 411.945 22.3224 414.41 18.0606L412.679 17.0594C410.023 21.651 408.704 26.8129 408.704 32.52H410.704ZM414.41 18.0606C416.88 13.7891 420.243 10.4792 424.509 8.11465L423.54 6.36534C418.953 8.90749 415.328 12.4775 412.679 17.0594L414.41 18.0606ZM424.517 8.11017C428.788 5.6919 433.47 4.48 438.584 4.48V2.48C433.138 2.48 428.114 3.77476 423.532 6.36982L424.517 8.11017ZM438.584 17.04C434.344 17.04 430.905 18.4371 428.393 21.3004L429.896 22.6196C431.97 20.2562 434.824 19.04 438.584 19.04V17.04ZM428.4 21.2927C425.897 24.0861 424.704 27.8703 424.704 32.52H426.704C426.704 28.2097 427.805 24.9539 429.889 22.6272L428.4 21.2927ZM424.704 32.52C424.704 37.0714 425.901 40.8204 428.393 43.6596L429.896 42.3404C427.801 39.9529 426.704 36.7153 426.704 32.52H424.704ZM428.393 43.6596C430.905 46.5229 434.344 47.92 438.584 47.92V45.92C434.824 45.92 431.97 44.7038 429.896 42.3404L428.393 43.6596ZM438.584 47.92C442.776 47.92 446.186 46.5198 448.696 43.6596L447.193 42.3404C445.116 44.7069 442.286 45.92 438.584 45.92V47.92ZM448.696 43.6596C451.187 40.8204 452.384 37.0714 452.384 32.52H450.384C450.384 36.7153 449.288 39.9529 447.193 42.3404L448.696 43.6596ZM452.384 32.52C452.384 27.8703 451.192 24.0861 448.689 21.2927L447.2 22.6272C449.284 24.9539 450.384 28.2097 450.384 32.52H452.384ZM448.704 21.3092C446.242 18.4373 442.824 17.04 438.584 17.04V19.04C442.345 19.04 445.167 20.2561 447.185 22.6108L448.704 21.3092ZM516.269 7.24L515.772 8.10759L515.778 8.11116L515.785 8.11465L516.269 7.24ZM526.669 17.56L525.799 18.0528L525.804 18.0606L526.669 17.56ZM526.669 47.48L525.804 46.9794L525.804 46.9794L526.669 47.48ZM516.189 57.88L516.679 58.7522L516.682 58.7502L516.189 57.88ZM487.149 57.88L486.657 58.7502L486.665 58.7547L487.149 57.88ZM476.669 47.48L477.535 46.9794L477.535 46.9794L476.669 47.48ZM476.669 17.56L475.804 17.0594L475.804 17.0594L476.669 17.56ZM487.149 7.24L487.634 8.11469L487.642 8.11017L487.149 7.24ZM492.269 21.96L493.014 22.6273L493.021 22.6196L492.269 21.96ZM492.269 43L491.518 43.6596L491.518 43.6596L492.269 43ZM511.069 43L511.821 43.6596L511.821 43.6596L511.069 43ZM511.069 21.96L510.31 22.6108L510.317 22.6191L510.325 22.6272L511.069 21.96ZM501.709 4.48C506.879 4.48 511.559 5.69276 515.772 8.10759L516.767 6.3724C512.233 3.7739 507.207 2.48 501.709 2.48V4.48ZM515.785 8.11465C520.049 10.4781 523.383 13.7856 525.799 18.0527L527.54 17.0672C524.943 12.4811 521.343 8.90851 516.754 6.36534L515.785 8.11465ZM525.804 18.0606C528.268 22.3224 529.509 27.1338 529.509 32.52H531.509C531.509 26.8129 530.19 21.651 527.535 17.0594L525.804 18.0606ZM529.509 32.52C529.509 37.9062 528.268 42.7176 525.804 46.9794L527.535 47.9806C530.19 43.389 531.509 38.2271 531.509 32.52H529.509ZM525.804 46.9794C523.332 51.2527 519.967 54.5914 515.697 57.0098L516.682 58.7502C521.265 56.1553 524.886 52.5606 527.535 47.9806L525.804 46.9794ZM515.7 57.0079C511.484 59.3729 506.827 60.56 501.709 60.56V62.56C507.151 62.56 512.148 61.2938 516.679 58.7521L515.7 57.0079ZM501.709 60.56C496.591 60.56 491.906 59.3729 487.634 57.0053L486.665 58.7547C491.246 61.2938 496.267 62.56 501.709 62.56V60.56ZM487.642 57.0098C483.371 54.5914 480.006 51.2527 477.535 46.9794L475.804 47.9806C478.452 52.5606 482.074 56.1553 486.657 58.7502L487.642 57.0098ZM477.535 46.9794C475.07 42.7176 473.829 37.9062 473.829 32.52H471.829C471.829 38.2271 473.148 43.389 475.804 47.9806L477.535 46.9794ZM473.829 32.52C473.829 27.1338 475.07 22.3224 477.535 18.0606L475.804 17.0594C473.148 21.651 471.829 26.8129 471.829 32.52H473.829ZM477.535 18.0606C480.005 13.7891 483.368 10.4792 487.634 8.11465L486.665 6.36534C482.078 8.90749 478.453 12.4775 475.804 17.0594L477.535 18.0606ZM487.642 8.11017C491.913 5.6919 496.595 4.48 501.709 4.48V2.48C496.263 2.48 491.239 3.77476 486.657 6.36982L487.642 8.11017ZM501.709 17.04C497.469 17.04 494.03 18.4371 491.518 21.3004L493.021 22.6196C495.095 20.2562 497.949 19.04 501.709 19.04V17.04ZM491.525 21.2927C489.022 24.0861 487.829 27.8703 487.829 32.52H489.829C489.829 28.2097 490.93 24.9539 493.014 22.6272L491.525 21.2927ZM487.829 32.52C487.829 37.0714 489.026 40.8204 491.518 43.6596L493.021 42.3404C490.926 39.9529 489.829 36.7153 489.829 32.52H487.829ZM491.518 43.6596C494.03 46.5229 497.469 47.92 501.709 47.92V45.92C497.949 45.92 495.095 44.7038 493.021 42.3404L491.518 43.6596ZM501.709 47.92C505.901 47.92 509.311 46.5198 511.821 43.6596L510.318 42.3404C508.241 44.7069 505.411 45.92 501.709 45.92V47.92ZM511.821 43.6596C514.312 40.8204 515.509 37.0714 515.509 32.52H513.509C513.509 36.7153 512.413 39.9529 510.318 42.3404L511.821 43.6596ZM515.509 32.52C515.509 27.8703 514.317 24.0861 511.814 21.2927L510.325 22.6272C512.409 24.9539 513.509 28.2097 513.509 32.52H515.509ZM511.829 21.3092C509.367 18.4373 505.949 17.04 501.709 17.04V19.04C505.47 19.04 508.292 20.2561 510.31 22.6108L511.829 21.3092ZM589.874 61V62H590.874V61H589.874ZM574.114 61L573.279 61.5498L573.575 62H574.114V61ZM553.314 29.4L554.15 28.8502L552.314 26.062V29.4H553.314ZM553.314 61V62H554.314V61H553.314ZM537.554 61H536.554V62H537.554V61ZM537.554 4.44V3.44H536.554V4.44H537.554ZM553.314 4.44L554.153 3.89501L553.857 3.44H553.314V4.44ZM574.114 36.44L573.276 36.985L575.114 39.8134V36.44H574.114ZM574.114 4.44V3.44H573.114V4.44H574.114ZM589.874 4.44H590.874V3.44H589.874V4.44ZM589.874 60H574.114V62H589.874V60ZM574.95 60.4502L554.15 28.8502L552.479 29.9498L573.279 61.5498L574.95 60.4502ZM552.314 29.4V61H554.314V29.4H552.314ZM553.314 60H537.554V62H553.314V60ZM538.554 61V4.44H536.554V61H538.554ZM537.554 5.44H553.314V3.44H537.554V5.44ZM552.476 4.98499L573.276 36.985L574.953 35.895L554.153 3.89501L552.476 4.98499ZM575.114 36.44V4.44H573.114V36.44H575.114ZM574.114 5.44H589.874V3.44H574.114V5.44ZM588.874 4.44V61H590.874V4.44H588.874ZM620.01 1.08L621.009 1.12973L621.061 0.079999H620.01V1.08ZM618.09 39.64V40.64H619.041L619.089 39.6897L618.09 39.64ZM604.65 39.64L603.651 39.6877L603.697 40.64H604.65V39.64ZM602.81 1.08V0.079999H601.761L601.811 1.12766L602.81 1.08ZM619.37 45.64H620.37V44.64H619.37V45.64ZM619.37 61V62H620.37V61H619.37ZM603.45 61H602.45V62H603.45V61ZM603.45 45.64V44.64H602.45V45.64H603.45ZM619.011 1.03027L617.091 39.5903L619.089 39.6897L621.009 1.12973L619.011 1.03027ZM618.09 38.64H604.65V40.64H618.09V38.64ZM605.649 39.5923L603.809 1.03234L601.811 1.12766L603.651 39.6877L605.649 39.5923ZM602.81 2.08H620.01V0.079999H602.81V2.08ZM618.37 45.64V61H620.37V45.64H618.37ZM619.37 60H603.45V62H619.37V60ZM604.45 61V45.64H602.45V61H604.45ZM603.45 46.64H619.37V44.64H603.45V46.64Z" fill="white"/>
</svg>
