<svg width="62" height="50" viewBox="0 0 62 50" fill="none" xmlns="http://www.w3.org/2000/svg">
<path d="M42.8657 -3.33786e-06L43.5657 17.57H42.2357C40.1824 11.3633 38.3624 7.14 36.7757 4.9C35.189 2.61333 32.9024 1.47 29.9157 1.47H29.0757V47.53H35.0257V49H9.4757V47.53H15.4257V1.47H14.5157C11.529 1.47 9.21904 2.66 7.5857 5.04C5.95237 7.37333 4.1557 11.55 2.1957 17.57H0.865703L1.5657 -3.33786e-06H42.8657Z" fill="white"/>
<path d="M55.2989 49.7C53.2922 49.7 51.7756 49.1167 50.7489 47.95C49.7689 46.7367 49.2789 45.29 49.2789 43.61C49.2789 41.8833 49.7922 40.4367 50.8189 39.27C51.8922 38.1033 53.3856 37.52 55.2989 37.52C57.2122 37.52 58.7289 38.01 59.8489 38.99C60.9689 39.97 61.5289 41.44 61.5289 43.4C61.5289 45.36 60.9922 46.9 59.9189 48.02C58.8922 49.14 57.3522 49.7 55.2989 49.7Z" fill="#FFE500"/>
</svg>
