<svg width="35" height="36" viewBox="0 0 35 36" fill="none" xmlns="http://www.w3.org/2000/svg">
<path d="M34.8873 10.3476C34.8677 8.8756 34.5921 7.41821 34.0729 6.04065C33.6227 4.87868 32.935 3.82341 32.0539 2.94225C31.1727 2.0611 30.1174 1.37343 28.9555 0.923201C27.5956 0.412733 26.159 0.136714 24.7068 0.106897C22.8371 0.0233231 22.2443 0 17.4981 0C12.7518 0 12.1435 1.30327e-07 10.2874 0.106897C8.83583 0.136933 7.39989 0.412949 6.04065 0.923201C4.8785 1.37312 3.82306 2.06067 2.94187 2.94187C2.06067 3.82306 1.37312 4.8785 0.923201 6.04065C0.411711 7.39947 0.13629 8.83573 0.108841 10.2874C0.0252665 12.159 0 12.7518 0 17.4981C0 22.2443 -1.44808e-08 22.8507 0.108841 24.7087C0.137994 26.1625 0.412039 27.5969 0.923201 28.9594C1.37387 30.1212 2.06194 31.1762 2.94343 32.057C3.82492 32.9378 4.88046 33.6251 6.04259 34.0749C7.39811 34.6058 8.8343 34.9016 10.2893 34.9495C12.161 35.033 12.7538 35.0583 17.5 35.0583C22.2462 35.0583 22.8546 35.0583 24.7107 34.9495C26.1628 34.9209 27.5995 34.6455 28.9594 34.1351C30.121 33.6844 31.176 32.9965 32.0571 32.1154C32.9382 31.2343 33.626 30.1793 34.0768 29.0177C34.588 27.6572 34.862 26.2228 34.8912 24.7671C34.9747 22.8973 35 22.3045 35 17.5564C34.9961 12.8101 34.9961 12.2076 34.8873 10.3476V10.3476ZM17.4864 26.4735C12.5225 26.4735 8.50122 22.4522 8.50122 17.4883C8.50122 12.5244 12.5225 8.50317 17.4864 8.50317C19.8694 8.50317 22.1548 9.44982 23.8399 11.1349C25.5249 12.8199 26.4716 15.1053 26.4716 17.4883C26.4716 19.8714 25.5249 22.1568 23.8399 23.8418C22.1548 25.5269 19.8694 26.4735 17.4864 26.4735V26.4735ZM26.8292 10.266C25.6689 10.266 24.734 9.32919 24.734 8.17081C24.734 7.8958 24.7882 7.62348 24.8934 7.3694C24.9987 7.11531 25.1529 6.88445 25.3474 6.68998C25.5419 6.49552 25.7727 6.34126 26.0268 6.23602C26.2809 6.13077 26.5532 6.07661 26.8282 6.07661C27.1032 6.07661 27.3756 6.13077 27.6296 6.23602C27.8837 6.34126 28.1146 6.49552 28.309 6.68998C28.5035 6.88445 28.6578 7.11531 28.763 7.3694C28.8683 7.62348 28.9224 7.8958 28.9224 8.17081C28.9224 9.32919 27.9856 10.266 26.8292 10.266Z" fill="#0E1319" fill-opacity="0.6"/>
<path d="M17.4865 23.325C20.7099 23.325 23.323 20.7119 23.323 17.4884C23.323 14.265 20.7099 11.6519 17.4865 11.6519C14.263 11.6519 11.6499 14.265 11.6499 17.4884C11.6499 20.7119 14.263 23.325 17.4865 23.325Z" fill="#0E1319" fill-opacity="0.6"/>
</svg>
