<svg width="32" height="32" viewBox="0 0 32 32" fill="none" xmlns="http://www.w3.org/2000/svg">
<path d="M3.84597 7.69195C5.97005 7.69195 7.69195 5.97005 7.69195 3.84597C7.69195 1.7219 5.97005 0 3.84597 0C1.7219 0 0 1.7219 0 3.84597C0 5.97005 1.7219 7.69195 3.84597 7.69195Z" fill="#0E1319"/>
<path d="M11.3235 10.6063V31.9437H17.9485V21.3919C17.9485 18.6076 18.4723 15.9112 21.9245 15.9112C25.3293 15.9112 25.3715 19.0945 25.3715 21.5677V31.9455H32V20.2441C32 14.4962 30.7626 10.079 24.0444 10.079C20.8189 10.079 18.6569 11.849 17.7727 13.5242H17.6831V10.6063H11.3235V10.6063ZM0.527344 10.6063H7.16288V31.9437H0.527344V10.6063Z" fill="#0E1319"/>
</svg>
