<svg width="35" height="9" viewBox="0 0 35 9" fill="none" xmlns="http://www.w3.org/2000/svg">
<path d="M4.375 0C1.96875 0 0 1.96875 0 4.375C0 6.78125 1.96875 8.75 4.375 8.75C6.78125 8.75 8.75 6.78125 8.75 4.375C8.75 1.96875 6.78125 0 4.375 0ZM30.625 0C28.2187 0 26.25 1.96875 26.25 4.375C26.25 6.78125 28.2187 8.75 30.625 8.75C33.0313 8.75 35 6.78125 35 4.375C35 1.96875 33.0313 0 30.625 0ZM17.5 0C15.0937 0 13.125 1.96875 13.125 4.375C13.125 6.78125 15.0937 8.75 17.5 8.75C19.9063 8.75 21.875 6.78125 21.875 4.375C21.875 1.96875 19.9063 0 17.5 0Z" fill="#2C3541"/>
</svg>
