<svg width="35" height="36" viewBox="0 0 35 36" fill="none" xmlns="http://www.w3.org/2000/svg">
<path d="M33.6367 20.0878C33.7733 19.2457 33.8413 18.3938 33.8399 17.5406C33.8399 13.207 32.1184 9.05089 29.0541 5.98656C25.9898 2.92222 21.8336 1.2007 17.5 1.2007C16.6468 1.19937 15.795 1.26734 14.9528 1.40393C13.0642 0.272606 10.8518 -0.195323 8.66681 0.0744523C6.48186 0.344227 4.44968 1.33624 2.89296 2.89296C1.33624 4.44968 0.344227 6.48187 0.0744524 8.66681C-0.195323 10.8518 0.272605 13.0642 1.40393 14.9528C1.25151 15.8072 1.16994 16.6728 1.16005 17.5406C1.16005 21.8743 2.88158 26.0304 5.94591 29.0947C9.01025 32.1591 13.1664 33.8806 17.5 33.8806C18.3532 33.8819 19.205 33.814 20.0472 33.6774C21.9358 34.8087 24.1482 35.2766 26.3332 35.0068C28.5181 34.7371 30.5503 33.7451 32.107 32.1883C33.6638 30.6316 34.6558 28.5994 34.9255 26.4145C35.1953 24.2295 34.7274 22.0171 33.5961 20.1285L33.6367 20.0878ZM25.2635 24.9654C24.4987 26.0227 23.4448 26.8367 22.2286 27.3094C20.7279 27.8983 19.1253 28.1838 17.5135 28.1494C15.6375 28.2279 13.7712 27.8416 12.0804 27.0249C11.0948 26.495 10.2495 25.7379 9.61455 24.8164C9.03297 24.0291 8.70243 23.0847 8.66613 22.1066C8.6647 21.8528 8.71571 21.6015 8.81596 21.3683C8.91622 21.1352 9.06355 20.9253 9.24873 20.7517C9.6591 20.4025 10.1874 20.2232 10.7256 20.2504C11.1753 20.2419 11.6131 20.3959 11.9585 20.684C12.3366 21.0377 12.6286 21.4734 12.8121 21.9576C13.0471 22.5234 13.3472 23.0599 13.7063 23.5564C14.0642 24.0147 14.5296 24.3776 15.0612 24.6132C15.7833 24.923 16.5659 25.0665 17.351 25.0332C18.4692 25.0874 19.5767 24.7939 20.5214 24.1931C20.8839 23.9808 21.1855 23.6783 21.3967 23.3151C21.608 22.9519 21.7219 22.5403 21.7273 22.1202C21.739 21.826 21.6883 21.5326 21.5785 21.2594C21.4688 20.9862 21.3024 20.7393 21.0905 20.5349C20.608 20.0905 20.0279 19.7656 19.3968 19.5865C18.6923 19.3562 17.7574 19.1259 16.5787 18.8684C15.2249 18.5533 13.9046 18.1086 12.636 17.5406C11.6377 17.1315 10.7575 16.4795 10.0752 15.6438C9.42811 14.7824 9.09361 13.7264 9.12679 12.6495C9.11585 11.5548 9.46848 10.4873 10.1294 9.61455C10.8843 8.67663 11.8897 7.97194 13.0289 7.58222C14.4693 7.10379 15.983 6.88362 17.5 6.93187C18.687 6.91088 19.8703 7.07078 21.0092 7.40609C21.9029 7.67147 22.7425 8.09353 23.4886 8.65258C24.0758 9.0936 24.5649 9.65189 24.9248 10.292C25.2177 10.8091 25.3761 11.3914 25.3854 11.9856C25.3837 12.2389 25.3313 12.4893 25.2312 12.722C25.1312 12.9547 24.9855 13.165 24.8028 13.3405C24.6185 13.5403 24.3941 13.699 24.1443 13.8064C23.8945 13.9138 23.625 13.9674 23.3531 13.9637C22.9173 13.9977 22.4852 13.8617 22.1473 13.5844C21.7917 13.2418 21.4943 12.8437 21.2666 12.4056C20.931 11.7151 20.4449 11.1086 19.844 10.6307C19.0554 10.1391 18.1271 9.92013 17.2019 10.0075C16.2523 9.96744 15.3113 10.2027 14.4921 10.6849C14.1946 10.8438 13.9433 11.0771 13.7629 11.3621C13.5824 11.647 13.4789 11.9739 13.4624 12.3108C13.4517 12.6789 13.5717 13.0389 13.8012 13.3269C14.0714 13.64 14.4035 13.8938 14.7767 14.0721C15.174 14.2777 15.5918 14.4412 16.0232 14.5599C16.4567 14.6818 17.1613 14.858 18.1503 15.0883C19.3968 15.3593 20.5079 15.6574 21.524 15.9825C22.433 16.2594 23.2992 16.6607 24.0983 17.1748C24.7953 17.6156 25.3688 18.2264 25.7648 18.9497C26.1675 19.7747 26.354 20.6885 26.3068 21.6053C26.319 22.8069 25.9541 23.9821 25.2635 24.9654Z" fill="#0E1319" fill-opacity="0.6"/>
</svg>
