<svg width="35" height="29" viewBox="0 0 35 29" fill="none" xmlns="http://www.w3.org/2000/svg">
<path d="M31.4042 7.08478C31.4273 7.39645 31.4273 7.70634 31.4273 8.01623C31.4273 17.5 24.209 28.4282 11.0172 28.4282C6.95298 28.4282 3.17728 27.2509 0 25.2063C0.57704 25.2722 1.13271 25.2954 1.7329 25.2954C4.96182 25.3032 8.09931 24.2235 10.6396 22.2303C9.14257 22.2032 7.69134 21.7093 6.48857 20.8175C5.2858 19.9257 4.39154 18.6806 3.93064 17.256C4.37411 17.3219 4.81936 17.3664 5.28598 17.3664C5.92891 17.3664 6.57541 17.2774 7.1756 17.1224C5.55092 16.7944 4.08999 15.9138 3.04125 14.6303C1.99251 13.3468 1.42068 11.7397 1.42301 10.0822V9.99313C2.3794 10.5256 3.48896 10.8587 4.66441 10.9032C3.67968 10.2489 2.87224 9.36092 2.31411 8.31863C1.75598 7.27634 1.46453 6.1121 1.46575 4.92978C1.46575 3.5976 1.82017 2.37584 2.44174 1.31081C4.24434 3.52818 6.4926 5.34219 9.0409 6.63536C11.5892 7.92853 14.3807 8.67202 17.2346 8.81768C17.1242 8.28338 17.0565 7.72949 17.0565 7.17382C17.0561 6.23161 17.2413 5.29855 17.6017 4.42797C17.962 3.55739 18.4904 2.76637 19.1567 2.10012C19.8229 1.43388 20.6139 0.905475 21.4845 0.545122C22.3551 0.18477 23.2881 -0.000467295 24.2304 8.85264e-07C26.2963 8.85264e-07 28.161 0.865561 29.4718 2.26542C31.0779 1.95484 32.618 1.36855 34.024 0.532516C33.4887 2.19029 32.3673 3.596 30.8699 4.48631C32.2943 4.32385 33.6864 3.94926 35 3.37497C34.0189 4.80528 32.8032 6.05954 31.4042 7.08478Z" fill="#0E1319" fill-opacity="0.6"/>
</svg>
